<svg width="414" height="202" viewBox="0 0 414 202" fill="none" xmlns="http://www.w3.org/2000/svg">
<g filter="url(#filter0_d_19_509)">
<rect x="16" y="36" width="382" height="122" rx="10" fill="white" shape-rendering="crispEdges"/>
<path d="M219.995 61.4124H193.928V108.245H219.995V61.4124Z" fill="#FF5A00"/>
<path d="M195.663 84.8286C195.663 75.3136 200.136 66.8687 207 61.4123C201.948 57.4405 195.576 55.04 188.625 55.04C172.16 55.04 158.837 68.3629 158.837 84.8286C158.837 101.294 172.16 114.617 188.625 114.617C195.576 114.617 201.948 112.217 207 108.245C200.126 102.866 195.663 94.3436 195.663 84.8286Z" fill="#EB001B"/>
<path d="M255.163 84.8288C255.163 101.294 241.84 114.617 225.374 114.617C218.424 114.617 212.052 112.217 207 108.245C213.951 102.779 218.337 94.3438 218.337 84.8288C218.337 75.3139 213.864 66.8689 207 61.4125C212.042 57.4407 218.414 55.0403 225.365 55.0403C241.84 55.0403 255.163 68.45 255.163 84.8288Z" fill="#F79E1B"/>
<path d="M162.279 138.722V131.51C162.279 128.751 160.598 126.945 157.713 126.945C156.271 126.945 154.703 127.421 153.624 128.989C152.784 127.673 151.58 126.945 149.773 126.945C148.569 126.945 147.365 127.309 146.412 128.625V127.183H143.892V138.722H146.412V132.35C146.412 130.306 147.491 129.339 149.171 129.339C150.851 129.339 151.692 130.418 151.692 132.35V138.722H154.212V132.35C154.212 130.306 155.417 129.339 156.971 129.339C158.652 129.339 159.492 130.418 159.492 132.35V138.722H162.279ZM199.669 127.183H195.58V123.696H193.059V127.183H190.776V129.465H193.059V134.759C193.059 137.405 194.137 138.96 197.022 138.96C198.1 138.96 199.305 138.596 200.145 138.12L199.417 135.949C198.689 136.425 197.848 136.551 197.246 136.551C196.042 136.551 195.566 135.823 195.566 134.633V129.465H199.655V127.183H199.669ZM221.067 126.931C219.624 126.931 218.658 127.659 218.056 128.611V127.169H215.535V138.708H218.056V132.21C218.056 130.292 218.896 129.199 220.464 129.199C220.941 129.199 221.543 129.325 222.033 129.437L222.761 127.029C222.257 126.931 221.543 126.931 221.067 126.931ZM188.732 128.135C187.527 127.295 185.847 126.931 184.041 126.931C181.156 126.931 179.237 128.373 179.237 130.656C179.237 132.574 180.68 133.666 183.2 134.017L184.405 134.143C185.721 134.381 186.449 134.745 186.449 135.347C186.449 136.187 185.483 136.789 183.802 136.789C182.122 136.789 180.792 136.187 179.951 135.585L178.747 137.503C180.063 138.47 181.87 138.946 183.676 138.946C187.037 138.946 188.97 137.377 188.97 135.221C188.97 133.176 187.401 132.098 185.007 131.734L183.802 131.608C182.724 131.482 181.884 131.244 181.884 130.53C181.884 129.689 182.724 129.213 184.055 129.213C185.497 129.213 186.939 129.815 187.668 130.179L188.732 128.135ZM255.796 126.931C254.354 126.931 253.387 127.659 252.785 128.611V127.169H250.265V138.708H252.785V132.21C252.785 130.292 253.625 129.199 255.194 129.199C255.67 129.199 256.272 129.325 256.762 129.437L257.491 127.057C257 126.931 256.286 126.931 255.796 126.931ZM223.587 132.952C223.587 136.439 225.996 138.96 229.721 138.96C231.401 138.96 232.606 138.596 233.81 137.644L232.606 135.599C231.64 136.327 230.687 136.677 229.595 136.677C227.55 136.677 226.108 135.235 226.108 132.952C226.108 130.782 227.55 129.339 229.595 129.227C230.673 129.227 231.64 129.591 232.606 130.306L233.81 128.261C232.606 127.295 231.401 126.945 229.721 126.945C225.996 126.931 223.587 129.465 223.587 132.952ZM246.904 132.952V127.183H244.383V128.625C243.543 127.547 242.338 126.945 240.77 126.945C237.521 126.945 235 129.465 235 132.952C235 136.439 237.521 138.96 240.77 138.96C242.45 138.96 243.655 138.358 244.383 137.279V138.722H246.904V132.952ZM237.647 132.952C237.647 130.908 238.964 129.227 241.134 129.227C243.179 129.227 244.621 130.796 244.621 132.952C244.621 134.997 243.179 136.677 241.134 136.677C238.978 136.551 237.647 134.983 237.647 132.952ZM207.483 126.931C204.122 126.931 201.713 129.339 201.713 132.938C201.713 136.551 204.122 138.946 207.609 138.946C209.289 138.946 210.97 138.47 212.3 137.377L211.096 135.571C210.13 136.299 208.925 136.775 207.735 136.775C206.167 136.775 204.612 136.047 204.248 134.017H212.776C212.776 133.652 212.776 133.414 212.776 133.05C212.888 129.339 210.718 126.931 207.483 126.931ZM207.483 129.101C209.051 129.101 210.13 130.067 210.368 131.86H204.36C204.598 130.306 205.676 129.101 207.483 129.101ZM270.108 132.952V122.617H267.587V128.625C266.747 127.547 265.543 126.945 263.974 126.945C260.725 126.945 258.205 129.465 258.205 132.952C258.205 136.439 260.725 138.96 263.974 138.96C265.655 138.96 266.859 138.358 267.587 137.279V138.722H270.108V132.952ZM260.851 132.952C260.851 130.908 262.168 129.227 264.338 129.227C266.383 129.227 267.825 130.796 267.825 132.952C267.825 134.997 266.383 136.677 264.338 136.677C262.168 136.551 260.851 134.983 260.851 132.952ZM176.464 132.952V127.183H173.944V128.625C173.104 127.547 171.899 126.945 170.331 126.945C167.082 126.945 164.561 129.465 164.561 132.952C164.561 136.439 167.082 138.96 170.331 138.96C172.011 138.96 173.216 138.358 173.944 137.279V138.722H176.464V132.952ZM167.096 132.952C167.096 130.908 168.412 129.227 170.583 129.227C172.627 129.227 174.07 130.796 174.07 132.952C174.07 134.997 172.627 136.677 170.583 136.677C168.412 136.551 167.096 134.983 167.096 132.952Z" fill="black"/>
</g>
<defs>
<filter id="filter0_d_19_509" x="-24" y="0" width="462" height="202" filterUnits="userSpaceOnUse" color-interpolation-filters="sRGB">
<feFlood flood-opacity="0" result="BackgroundImageFix"/>
<feColorMatrix in="SourceAlpha" type="matrix" values="0 0 0 0 0 0 0 0 0 0 0 0 0 0 0 0 0 0 127 0" result="hardAlpha"/>
<feOffset dy="4"/>
<feGaussianBlur stdDeviation="20"/>
<feComposite in2="hardAlpha" operator="out"/>
<feColorMatrix type="matrix" values="0 0 0 0 0.203922 0 0 0 0 0.301961 0 0 0 0 0.47451 0 0 0 0.15 0"/>
<feBlend mode="normal" in2="BackgroundImageFix" result="effect1_dropShadow_19_509"/>
<feBlend mode="normal" in="SourceGraphic" in2="effect1_dropShadow_19_509" result="shape"/>
</filter>
</defs>
</svg>
