<svg width="414" height="154" viewBox="0 0 414 154" fill="none" xmlns="http://www.w3.org/2000/svg">
<g filter="url(#filter0_d_19_503)">
<rect x="18" y="36" width="380" height="74" rx="10" fill="white" shape-rendering="crispEdges"/>
<path d="M192.839 53.2247L176.343 92.8798H165.581L157.463 61.2332C156.97 59.284 156.541 58.5699 155.043 57.7486C152.597 56.411 148.556 55.1567 145 54.3778L145.241 53.2247H162.566C164.774 53.2247 166.759 54.7058 167.261 57.2679L171.548 80.2144L182.144 53.2247H192.839ZM235.009 79.9327C235.053 69.4665 220.645 68.8899 220.744 64.2146C220.775 62.7917 222.12 61.2788 225.063 60.8927C226.522 60.7003 230.542 60.5535 235.1 62.6673L236.889 54.2581C234.439 53.3622 231.287 52.5 227.365 52.5C217.302 52.5 210.219 57.8901 210.16 65.6084C210.095 71.3172 215.215 74.5029 219.072 76.3999C223.041 78.3425 224.372 79.5909 224.357 81.3285C224.329 83.9886 221.192 85.1629 218.26 85.2091C213.143 85.2885 210.173 83.814 207.806 82.7052L205.961 91.3927C208.34 92.4923 212.731 93.4517 217.283 93.5C227.98 93.5 234.976 88.1766 235.009 79.9327ZM261.583 92.8805H271L262.78 53.2247H254.089C252.135 53.2247 250.486 54.3712 249.757 56.134L234.478 92.8798H245.169L247.292 86.9561H260.355L261.584 92.8798L261.583 92.8805ZM250.223 78.8292L255.582 63.9402L258.666 78.8292H250.224H250.223ZM207.387 53.2247L198.968 92.8798H188.787L197.209 53.2247H207.387Z" fill="#1434CB"/>
</g>
<defs>
<filter id="filter0_d_19_503" x="-22" y="0" width="460" height="154" filterUnits="userSpaceOnUse" color-interpolation-filters="sRGB">
<feFlood flood-opacity="0" result="BackgroundImageFix"/>
<feColorMatrix in="SourceAlpha" type="matrix" values="0 0 0 0 0 0 0 0 0 0 0 0 0 0 0 0 0 0 127 0" result="hardAlpha"/>
<feOffset dy="4"/>
<feGaussianBlur stdDeviation="20"/>
<feComposite in2="hardAlpha" operator="out"/>
<feColorMatrix type="matrix" values="0 0 0 0 0.203922 0 0 0 0 0.301961 0 0 0 0 0.47451 0 0 0 0.15 0"/>
<feBlend mode="normal" in2="BackgroundImageFix" result="effect1_dropShadow_19_503"/>
<feBlend mode="normal" in="SourceGraphic" in2="effect1_dropShadow_19_503" result="shape"/>
</filter>
</defs>
</svg>
