<svg width="414" height="152" viewBox="0 0 414 152" fill="none" xmlns="http://www.w3.org/2000/svg">
<g filter="url(#filter0_d_19_529)">
<rect x="16" y="36" width="382" height="72" rx="10" fill="white" shape-rendering="crispEdges"/>
<path fill-rule="evenodd" clip-rule="evenodd" d="M288.803 66.445C288.803 69.0652 286.707 71.1614 284.086 71.1614C281.466 71.1614 279.37 69.0652 279.37 66.445C279.37 63.8248 281.466 61.7286 284.086 61.7286C286.707 61.7286 288.803 63.8248 288.803 66.445Z" fill="#7887E6"/>
<path fill-rule="evenodd" clip-rule="evenodd" d="M288.803 81.1182C288.803 83.7384 286.707 85.8346 284.086 85.8346C281.466 85.8346 279.37 83.7384 279.37 81.1182C279.37 78.498 281.466 76.4019 284.086 76.4019C286.707 76.4019 288.803 78.498 288.803 81.1182Z" fill="#FF5073"/>
<path fill-rule="evenodd" clip-rule="evenodd" d="M136.412 68.5413H132.639V59.6326H136.412C139.032 59.6326 140.499 61.5192 140.499 64.1394C140.499 66.9692 138.822 68.5413 136.412 68.5413ZM137.145 54.1826H125.197V85.2057H132.534V73.8866H137.041C143.015 73.8866 147.521 70.1134 147.521 63.8249C147.626 58.3749 144.272 54.1826 137.145 54.1826ZM186.405 62.2528L181.479 75.9827L175.82 62.2528H168.483L178.23 84.1577L175.191 91.7039H182.003L193.637 62.3577H186.405V62.2528ZM239.648 61.3096V62.2528H235.874V67.1788H239.648V85.2057H246.774V67.1788H251.701V62.2528H246.774V60.9951C246.774 59.0038 247.613 57.5364 249.814 57.5364C250.548 57.5364 251.281 57.6413 251.91 57.8509V52.7153C250.757 52.4009 249.604 52.296 248.451 52.296C242.687 52.296 239.648 55.8596 239.648 61.3096ZM226.547 80.175C225.708 80.8039 224.765 81.1182 223.717 81.1182C222.249 81.3278 220.887 80.2798 220.677 78.8125C220.677 78.7077 220.677 78.6028 220.677 78.498C220.677 76.6115 222.145 74.725 226.547 75.4587V80.175ZM225.184 61.7287C221.621 61.7287 218.162 62.6721 215.018 64.4538L217.009 68.5413C219 67.598 221.201 67.0739 223.402 66.9691C225.079 66.9691 226.547 67.5981 226.547 69.275V70.8471C216.59 70.1135 213.76 74.5153 213.76 78.498C213.865 82.5855 217.324 85.8346 221.411 85.7298C221.411 85.7298 221.411 85.7298 221.516 85.7298C223.298 85.625 225.079 85.1009 226.547 84.1577V85.2057H233.778V69.275C233.778 64.0346 230.424 61.7287 225.184 61.7287ZM161.042 80.175C160.203 80.8039 159.26 81.1182 158.212 81.1182C156.744 81.3278 155.382 80.2798 155.172 78.8125C155.172 78.7077 155.172 78.6028 155.172 78.498C155.172 76.6115 156.64 74.725 161.042 75.4587V80.175ZM159.47 61.7287C155.906 61.7287 152.447 62.6721 149.303 64.4538L151.294 68.5413C153.286 67.598 155.487 67.0739 157.688 66.9691C159.365 66.9691 160.832 67.5981 160.832 69.275V70.8471C150.875 70.1135 148.045 74.5153 148.045 78.498C148.15 82.5855 151.609 85.8346 155.696 85.7298C155.696 85.7298 155.696 85.7298 155.801 85.7298C157.583 85.625 159.365 85.1009 160.832 84.1577V85.2057H168.064V69.275C168.064 64.0346 164.71 61.7287 159.47 61.7287ZM200.973 68.7509C200.973 67.7029 202.021 66.9691 203.803 66.9691C205.69 67.0739 207.471 67.4933 209.148 68.2269L211.14 63.5105C208.729 62.3577 206.109 61.7288 203.489 61.624C198.144 61.624 193.846 64.0345 193.846 68.9605C193.846 76.6115 204.642 75.2491 204.642 78.6029C204.642 79.8606 203.384 80.4894 201.288 80.4894C199.296 80.3846 197.2 79.8605 195.419 78.9173L193.113 83.5288C195.838 84.8913 198.877 85.625 201.917 85.625C207.157 85.625 211.664 82.8999 211.664 77.974C211.664 70.5326 200.973 71.7904 200.973 68.7509ZM263.649 66.7596C265.64 66.7596 267.212 68.3317 267.422 71.3711H259.771C260.085 68.3317 261.657 66.7596 263.649 66.7596ZM274.758 75.249V73.4673C274.758 66.7596 270.042 61.8336 263.649 61.8336C257.255 61.8336 252.329 66.8644 252.329 73.9913C252.329 81.2231 257.046 85.8346 264.487 85.8346C267.841 85.9394 271.09 84.9961 273.815 83.2144L271.824 78.7077C269.937 79.8606 267.736 80.4894 265.535 80.4894C265.326 80.4894 265.221 80.4894 265.011 80.4894H264.906C264.697 80.4894 264.592 80.4894 264.487 80.4894H264.382C264.277 80.4894 264.173 80.4894 264.068 80.3846H263.963C263.858 80.3846 263.753 80.2798 263.649 80.2798C263.544 80.2798 263.544 80.2798 263.439 80.175C263.334 80.175 263.229 80.0701 263.229 80.0701C263.125 80.0701 263.02 79.9653 262.915 79.9653H262.81C262.705 79.8605 262.496 79.8606 262.391 79.7558C262.076 79.5462 261.867 79.3366 261.552 79.127C261.448 79.0222 261.343 78.9173 261.238 78.8125L261.133 78.7077C261.133 78.6029 261.028 78.6028 261.028 78.498C260.924 78.3932 260.819 78.2885 260.819 78.1837C260.295 77.2404 259.98 76.2971 259.98 75.249H274.758Z" fill="#2D2341"/>
</g>
<defs>
<filter id="filter0_d_19_529" x="-24" y="0" width="462" height="152" filterUnits="userSpaceOnUse" color-interpolation-filters="sRGB">
<feFlood flood-opacity="0" result="BackgroundImageFix"/>
<feColorMatrix in="SourceAlpha" type="matrix" values="0 0 0 0 0 0 0 0 0 0 0 0 0 0 0 0 0 0 127 0" result="hardAlpha"/>
<feOffset dy="4"/>
<feGaussianBlur stdDeviation="20"/>
<feComposite in2="hardAlpha" operator="out"/>
<feColorMatrix type="matrix" values="0 0 0 0 0.203922 0 0 0 0 0.301961 0 0 0 0 0.47451 0 0 0 0.15 0"/>
<feBlend mode="normal" in2="BackgroundImageFix" result="effect1_dropShadow_19_529"/>
<feBlend mode="normal" in="SourceGraphic" in2="effect1_dropShadow_19_529" result="shape"/>
</filter>
</defs>
</svg>
