<svg width="414" height="159" viewBox="0 0 414 159" fill="none" xmlns="http://www.w3.org/2000/svg">
<g filter="url(#filter0_d_19_517)">
<rect x="15" y="36" width="383" height="79" rx="10" fill="white" shape-rendering="crispEdges"/>
<path d="M177.231 86.3749V62.6015H168.71V56.9529H191.883V62.6015H183.362V86.3749H177.231Z" fill="#0EE06E"/>
<path d="M190.917 86.3751V65.03H196.557V68.4086C197.892 65.5403 199.614 65.03 201.458 65.03H203.637V70.749H201.792C199.139 70.749 196.767 72.28 196.767 76.9607V86.3927H190.917V86.3751Z" fill="#0EE06E"/>
<path d="M206.289 78.5621V65.03H212.122V77.2423C212.122 79.7411 213.334 81.5887 215.829 81.5887C218.236 81.5887 219.764 79.7411 219.764 77.2775V65.03H225.597V86.3927H220.045V83.7004C218.64 85.8296 216.549 86.8854 213.896 86.8854C209.223 86.8678 206.289 83.6476 206.289 78.5621Z" fill="#0EE06E"/>
<path d="M228.093 80.3745L233.17 79.2131C233.416 80.8672 234.734 82.1166 237.281 82.1166C239.249 82.1166 240.338 81.3071 240.338 80.3041C240.338 79.4946 239.899 78.8963 237.879 78.4564L234.541 77.7349C230.271 76.8023 228.462 74.8315 228.462 71.2417C228.462 67.5815 231.484 64.6252 237.158 64.6252C243.184 64.6252 245.609 68.2502 245.855 70.6258L240.742 71.752C240.496 70.5026 239.583 69.1301 237.035 69.1301C235.419 69.1301 234.224 69.8515 234.224 70.9073C234.224 71.7872 234.822 72.2799 235.876 72.5263L240.742 73.6525C244.449 74.4971 246.171 76.7143 246.171 79.8642C246.171 83.2428 243.483 86.7974 237.316 86.7974C230.535 86.7798 228.321 82.7149 228.093 80.3745Z" fill="#0EE06E"/>
<path d="M257.379 86.3749C253.602 86.3749 251.072 84.2809 251.072 80.128V70.133H247.488V65.0122H251.072V60.2611L256.905 58.5718V65.0122H261.209V70.133H256.905V79.0722C256.905 80.6383 257.713 81.2542 259.277 81.2542H261.526V86.3749H257.379Z" fill="#0EE06E"/>
<path d="M264.688 86.3749V56.9705H270.521V86.3925H264.688V86.3749Z" fill="#0EE06E"/>
<path d="M288.107 65.03H294.344L285.454 94.0473H279.217L281.677 86.3927H278.462L272.594 65.03H278.831L283.223 81.5535L288.107 65.03Z" fill="#0EE06E"/>
<path d="M118.656 69.8516H132.342V58.9064L143.27 69.8516L132.342 80.7793V86.3752H145.607V69.8516H157.782V56.9707H118.656V69.8516Z" fill="#0EE06E"/>
</g>
<defs>
<filter id="filter0_d_19_517" x="-25" y="0" width="463" height="159" filterUnits="userSpaceOnUse" color-interpolation-filters="sRGB">
<feFlood flood-opacity="0" result="BackgroundImageFix"/>
<feColorMatrix in="SourceAlpha" type="matrix" values="0 0 0 0 0 0 0 0 0 0 0 0 0 0 0 0 0 0 127 0" result="hardAlpha"/>
<feOffset dy="4"/>
<feGaussianBlur stdDeviation="20"/>
<feComposite in2="hardAlpha" operator="out"/>
<feColorMatrix type="matrix" values="0 0 0 0 0.203922 0 0 0 0 0.301961 0 0 0 0 0.47451 0 0 0 0.15 0"/>
<feBlend mode="normal" in2="BackgroundImageFix" result="effect1_dropShadow_19_517"/>
<feBlend mode="normal" in="SourceGraphic" in2="effect1_dropShadow_19_517" result="shape"/>
</filter>
</defs>
</svg>
