<svg width="414" height="147" viewBox="0 0 414 147" fill="none" xmlns="http://www.w3.org/2000/svg">
<g filter="url(#filter0_d_19_506)">
<rect x="18" y="36" width="380" height="67" rx="10" fill="white" shape-rendering="crispEdges"/>
<path d="M178.797 56.5511C178.463 56.5511 178.18 56.7944 178.128 57.1256L174.268 81.7195C174.254 81.8093 174.259 81.9011 174.284 81.9886C174.308 82.0761 174.352 82.1572 174.411 82.2263C174.469 82.2954 174.542 82.3509 174.625 82.389C174.707 82.427 174.796 82.4467 174.887 82.4468H179.464C179.797 82.4468 180.081 82.2031 180.133 81.8723L181.267 74.6501C181.319 74.3194 181.603 74.0757 181.936 74.0757H186.098C190.961 74.0757 195.089 70.511 195.843 65.6807C196.603 60.8095 192.815 56.5617 187.447 56.5511H178.797ZM183.246 62.0415H186.576C189.318 62.0415 190.211 63.6666 189.928 65.4639C189.646 67.265 188.26 68.5917 185.608 68.5917H182.218L183.246 62.0415ZM205.153 63.7133C203.997 63.7176 202.667 63.9555 201.174 64.5804C197.749 66.0147 196.104 68.9791 195.406 71.1402C195.406 71.1402 193.182 77.7337 198.205 81.3561C198.205 81.3561 202.864 84.8434 208.108 81.1412L208.018 81.7195C208.004 81.8092 208.009 81.901 208.034 81.9884C208.058 82.0758 208.101 82.1569 208.16 82.226C208.219 82.2951 208.292 82.3506 208.374 82.3887C208.456 82.4268 208.545 82.4466 208.636 82.4468H212.981C213.315 82.4468 213.598 82.2031 213.65 81.8723L216.294 65.0303C216.308 64.9405 216.302 64.8486 216.278 64.7611C216.253 64.6736 216.21 64.5924 216.151 64.5232C216.093 64.454 216.02 64.3984 215.938 64.3602C215.855 64.3221 215.766 64.3022 215.675 64.3021H211.33C210.996 64.3021 210.713 64.5458 210.661 64.8765L210.519 65.7831C210.519 65.7831 208.621 63.7003 205.153 63.7133ZM205.295 69.0329C205.794 69.0329 206.251 69.1022 206.66 69.2343C208.535 69.839 209.598 71.6488 209.291 73.6104C208.911 76.0258 206.94 77.8044 204.411 77.8044C203.913 77.8044 203.456 77.7356 203.046 77.6034C201.172 76.9987 200.102 75.189 200.409 73.2273C200.789 70.8119 202.767 69.0329 205.295 69.0329Z" fill="#003087"/>
<path d="M241.376 56.5511C241.043 56.5511 240.759 56.7944 240.707 57.1256L236.847 81.7195C236.833 81.8093 236.839 81.9011 236.863 81.9886C236.888 82.0761 236.931 82.1572 236.99 82.2263C237.049 82.2954 237.122 82.3509 237.204 82.389C237.286 82.427 237.376 82.4467 237.466 82.4468H242.044C242.377 82.4468 242.661 82.2031 242.713 81.8723L243.847 74.6501C243.898 74.3194 244.182 74.0757 244.516 74.0757H248.678C253.54 74.0757 257.668 70.511 258.421 65.6807C259.182 60.8095 255.395 56.5617 250.026 56.5511H241.376ZM245.826 62.0415H249.156C251.897 62.0415 252.79 63.6666 252.508 65.4639C252.226 67.265 250.84 68.5917 248.187 68.5917H244.798L245.826 62.0415ZM267.732 63.7133C266.576 63.7176 265.246 63.9555 263.753 64.5804C260.328 66.0147 258.683 68.9791 257.985 71.1402C257.985 71.1402 255.762 77.7337 260.785 81.3561C260.785 81.3561 265.443 84.8434 270.688 81.1412L270.597 81.7195C270.583 81.8093 270.589 81.9011 270.613 81.9886C270.638 82.0761 270.681 82.1572 270.74 82.2263C270.799 82.2954 270.872 82.3509 270.954 82.389C271.036 82.427 271.126 82.4467 271.216 82.4468H275.561C275.895 82.4468 276.178 82.2031 276.23 81.8723L278.875 65.0303C278.889 64.9404 278.883 64.8485 278.859 64.7609C278.834 64.6733 278.791 64.592 278.732 64.5228C278.673 64.4536 278.6 64.398 278.518 64.3599C278.436 64.3218 278.346 64.3021 278.256 64.3021H273.91C273.576 64.3021 273.293 64.5458 273.241 64.8765L273.099 65.7831C273.099 65.7831 271.201 63.7003 267.732 63.7133ZM267.874 69.0329C268.373 69.0329 268.83 69.1022 269.239 69.2343C271.114 69.839 272.177 71.6488 271.87 73.6104C271.49 76.0258 269.519 77.8044 266.99 77.8044C266.492 77.8044 266.035 77.7356 265.625 77.6034C263.751 76.9987 262.681 75.189 262.989 73.2273C263.368 70.8119 265.346 69.0329 267.874 69.0329Z" fill="#0070E0"/>
<path d="M218.356 64.302C218.011 64.302 217.766 64.6399 217.871 64.9692L222.636 79.8226L218.328 86.8223C218.119 87.1621 218.362 87.601 218.759 87.601H223.851C223.997 87.6008 224.14 87.563 224.267 87.4911C224.393 87.4192 224.499 87.3156 224.575 87.1905L237.881 65.0759C238.085 64.736 237.841 64.3015 237.446 64.3015H232.355C232.208 64.3016 232.063 64.3402 231.936 64.4135C231.808 64.4867 231.701 64.5921 231.627 64.7192L226.389 73.6031L223.73 64.7851C223.644 64.4981 223.38 64.3015 223.082 64.3015L218.356 64.302Z" fill="#003087"/>
<path d="M283.812 56.5511C283.479 56.5511 283.195 56.7949 283.143 57.1256L279.282 81.7185C279.268 81.8084 279.273 81.9004 279.298 81.988C279.323 82.0756 279.366 82.1568 279.425 82.226C279.484 82.2952 279.557 82.3508 279.639 82.3889C279.721 82.427 279.811 82.4468 279.901 82.4468H284.479C284.812 82.4468 285.096 82.2031 285.148 81.8723L289.008 57.2784C289.022 57.1887 289.016 57.0969 288.992 57.0095C288.967 56.9221 288.924 56.841 288.865 56.7719C288.807 56.7028 288.734 56.6473 288.652 56.6092C288.57 56.5711 288.48 56.5513 288.39 56.5511H283.812Z" fill="#0070E0"/>
<path d="M140.633 56.5511C140.339 56.5514 140.053 56.6573 139.829 56.8498C139.605 57.0423 139.457 57.3088 139.411 57.6014L137.379 70.549C137.473 69.9443 137.992 69.4987 138.602 69.4987H144.556C150.548 69.4987 155.633 65.1068 156.562 59.155C156.631 58.7106 156.67 58.2621 156.679 57.8124C155.156 57.0102 153.368 56.5511 151.407 56.5511H140.633Z" fill="#001C64"/>
<path d="M156.679 57.8124C156.67 58.2621 156.631 58.7106 156.562 59.155C155.633 65.1068 150.548 69.4987 144.556 69.4987H138.602C137.992 69.4987 137.473 69.9443 137.379 70.549L135.51 82.4473L134.34 89.9113C134.317 90.0555 134.326 90.2029 134.365 90.3435C134.405 90.4841 134.474 90.6143 134.568 90.7254C134.663 90.8364 134.78 90.9256 134.912 90.9867C135.044 91.0478 135.187 91.0794 135.333 91.0793H141.796C142.09 91.0791 142.376 90.9732 142.6 90.7807C142.824 90.5882 142.972 90.3217 143.018 90.029L144.721 79.1816C144.767 78.8888 144.915 78.6221 145.14 78.4296C145.364 78.2371 145.65 78.1313 145.945 78.1313H149.75C155.742 78.1313 160.827 73.7393 161.756 67.7876C162.416 63.5633 160.298 59.7188 156.679 57.8124Z" fill="#0070E0"/>
<path d="M133.291 47.9207C132.682 47.9207 132.163 48.3658 132.068 48.97L126.997 81.2793C126.901 81.8926 127.372 82.4473 127.991 82.4473L135.51 82.4473L137.379 70.549L139.411 57.6014C139.457 57.3088 139.605 57.0423 139.829 56.8498C140.053 56.6573 140.339 56.5514 140.633 56.5511H151.407C153.368 56.5511 155.156 57.0102 156.679 57.8124C156.784 52.3938 152.333 47.9207 146.214 47.9207H133.291Z" fill="#003087"/>
</g>
<defs>
<filter id="filter0_d_19_506" x="-22" y="0" width="460" height="147" filterUnits="userSpaceOnUse" color-interpolation-filters="sRGB">
<feFlood flood-opacity="0" result="BackgroundImageFix"/>
<feColorMatrix in="SourceAlpha" type="matrix" values="0 0 0 0 0 0 0 0 0 0 0 0 0 0 0 0 0 0 127 0" result="hardAlpha"/>
<feOffset dy="4"/>
<feGaussianBlur stdDeviation="20"/>
<feComposite in2="hardAlpha" operator="out"/>
<feColorMatrix type="matrix" values="0 0 0 0 0.203922 0 0 0 0 0.301961 0 0 0 0 0.47451 0 0 0 0.15 0"/>
<feBlend mode="normal" in2="BackgroundImageFix" result="effect1_dropShadow_19_506"/>
<feBlend mode="normal" in="SourceGraphic" in2="effect1_dropShadow_19_506" result="shape"/>
</filter>
</defs>
</svg>
