<svg width="414" height="156" viewBox="0 0 414 156" fill="none" xmlns="http://www.w3.org/2000/svg">
<g filter="url(#filter0_d_19_499)">
<rect x="18" y="36" width="380" height="76" rx="10" fill="white" shape-rendering="crispEdges"/>
<g clip-path="url(#clip0_19_499)">
<path d="M246.38 55.921L257.198 53.9574V96.0411H246.38V55.921ZM262.174 55.921V96.0411H272.997V53.9574L262.174 55.921ZM230.971 96.0411H241.794V65.2626H230.971V96.0411ZM159.456 69.6139C158.086 69.5209 154.921 69.3176 154.921 66.4245C154.921 62.9388 159.479 62.9388 161.193 62.9388C164.202 62.9388 168.095 63.8393 170.875 64.6816C170.875 64.6816 172.429 65.2335 173.747 65.8029L173.868 65.8377V56.2928L173.701 56.2405C170.422 55.0786 166.604 53.9574 159.53 53.9574C147.325 53.9574 143.003 61.1611 143.003 67.3308C143.003 70.8861 144.505 79.2576 158.475 80.2219C159.662 80.2974 162.804 80.4775 162.804 83.4636C162.804 85.9268 160.23 87.385 155.901 87.385C151.161 87.385 146.557 86.1592 143.76 84.9973V94.8327C147.945 95.9423 152.657 96.5 158.189 96.5C170.119 96.5 175.461 89.6855 175.461 82.9349C175.461 75.2781 169.482 70.3052 159.456 69.6197V69.6139ZM224.877 64.8095C214.874 65.1348 209.8 69.6836 209.8 78.7231V96.0411H220.715V81.9183C220.715 76.5039 221.415 74.1859 227.755 73.9651V64.9721C226.689 64.7397 224.883 64.8153 224.883 64.8153L224.877 64.8095ZM195.52 65.2277C195.279 65.8435 193.548 70.799 189.357 75.9404V53.9574L178.19 56.194V96.0411H189.357V83.725C192.591 88.6398 194.19 96.0411 194.19 96.0411H207.564C206.24 90.4698 200.456 80.1871 200.456 80.1871C205.65 73.512 207.931 66.4012 208.292 65.2219H195.52V65.2277ZM236.388 62.3114C239.335 62.3114 241.725 59.8947 241.725 56.9086C241.725 53.9225 239.335 51.5 236.388 51.5C233.442 51.5 231.057 53.9225 231.057 56.9086C231.057 59.8947 233.447 62.3114 236.388 62.3114Z" fill="#862165"/>
</g>
</g>
<defs>
<filter id="filter0_d_19_499" x="-22" y="0" width="460" height="156" filterUnits="userSpaceOnUse" color-interpolation-filters="sRGB">
<feFlood flood-opacity="0" result="BackgroundImageFix"/>
<feColorMatrix in="SourceAlpha" type="matrix" values="0 0 0 0 0 0 0 0 0 0 0 0 0 0 0 0 0 0 127 0" result="hardAlpha"/>
<feOffset dy="4"/>
<feGaussianBlur stdDeviation="20"/>
<feComposite in2="hardAlpha" operator="out"/>
<feColorMatrix type="matrix" values="0 0 0 0 0.203922 0 0 0 0 0.301961 0 0 0 0 0.47451 0 0 0 0.15 0"/>
<feBlend mode="normal" in2="BackgroundImageFix" result="effect1_dropShadow_19_499"/>
<feBlend mode="normal" in="SourceGraphic" in2="effect1_dropShadow_19_499" result="shape"/>
</filter>
<clipPath id="clip0_19_499">
<rect width="129.994" height="45" fill="white" transform="translate(143.003 51.5)"/>
</clipPath>
</defs>
</svg>
